<svg width="14" height="8" viewBox="0 0 14 8" fill="none" xmlns="http://www.w3.org/2000/svg">
<path d="M6.99019 7.33092C6.76806 7.33135 6.55278 7.25389 6.38173 7.11198L0.677433 2.35254C0.483281 2.19097 0.361186 1.95879 0.338007 1.70709C0.314829 1.45538 0.392466 1.20477 0.55384 1.01038C0.715213 0.815984 0.947104 0.693739 1.1985 0.670532C1.44989 0.647325 1.7002 0.725058 1.89435 0.88663L6.99019 5.15109L12.086 1.03893C12.1833 0.959863 12.2952 0.900816 12.4153 0.865185C12.5354 0.829554 12.6614 0.818042 12.7859 0.831311C12.9105 0.844579 13.0312 0.882366 13.1412 0.942501C13.2511 1.00264 13.3481 1.08393 13.4265 1.18172C13.5136 1.27959 13.5796 1.39441 13.6202 1.51899C13.6609 1.64357 13.6755 1.77521 13.663 1.90568C13.6505 2.03615 13.6112 2.16263 13.5476 2.2772C13.484 2.39176 13.3975 2.49195 13.2934 2.57147L7.58915 7.1691C7.41318 7.28857 7.2023 7.34555 6.99019 7.33092Z" fill="#FCFCFC"/>
</svg>
