<svg width="16" height="16" viewBox="0 0 16 16" fill="none" xmlns="http://www.w3.org/2000/svg">
<path fill-rule="evenodd" clip-rule="evenodd" d="M2.9671 1.83443C2.81622 1.68871 2.61413 1.60807 2.40438 1.60989C2.19462 1.61172 1.99397 1.69585 1.84564 1.84418C1.69732 1.9925 1.61318 2.19315 1.61136 2.40291C1.60954 2.61267 1.69017 2.81475 1.8359 2.96563L13.0359 14.1656C13.1868 14.3114 13.3889 14.392 13.5986 14.3902C13.8084 14.3883 14.009 14.3042 14.1574 14.1559C14.3057 14.0076 14.3898 13.8069 14.3916 13.5972C14.3935 13.3874 14.3128 13.1853 14.1671 13.0344L12.9887 11.856C14.2347 10.8625 15.1561 9.51997 15.6351 8.00003C14.6159 4.75443 11.5839 2.40003 8.0015 2.40003C6.74744 2.39833 5.5107 2.69272 4.3919 3.25923L2.9679 1.83443H2.9671ZM6.3759 5.24243L7.5871 6.45443C7.85837 6.38239 8.14381 6.38287 8.41483 6.45582C8.68586 6.52876 8.93298 6.67162 9.13145 6.87008C9.32991 7.06855 9.47277 7.31567 9.54571 7.5867C9.61866 7.85773 9.61914 8.14316 9.5471 8.41443L10.7583 9.62563C11.1191 9.01445 11.2665 8.30067 11.1772 7.59657C11.088 6.89248 10.7672 6.23803 10.2654 5.73618C9.7635 5.23432 9.10905 4.91355 8.40496 4.82431C7.70086 4.73508 6.98708 4.88244 6.3759 5.24323V5.24243Z" fill="#ffffff"/>
<path d="M9.96399 13.3577L7.80079 11.1937C7.02294 11.1449 6.28961 10.814 5.73843 10.263C5.18726 9.71193 4.85613 8.97869 4.80719 8.20085L1.86879 5.26245C1.19296 6.06726 0.682667 6.99758 0.367188 8.00005C1.38639 11.2457 4.41919 13.6001 8.00079 13.6001C8.67839 13.6001 9.33599 13.5161 9.96399 13.3577Z" fill="#ffffff"/>
</svg>
